<?xml version="1.0" standalone="no"?>
<!DOCTYPE svg PUBLIC "-//W3C//DTD SVG 20010904//EN"
 "http://www.w3.org/TR/2001/REC-SVG-20010904/DTD/svg10.dtd">
<svg version="1.0" xmlns="http://www.w3.org/2000/svg"
 width="512.000000pt" height="512.000000pt" viewBox="0 0 512.000000 512.000000"
 preserveAspectRatio="xMidYMid meet">
<metadata>
Created by potrace 1.14, written by Peter Selinger 2001-2017
</metadata>
<g transform="translate(0.000000,512.000000) scale(0.100000,-0.100000)"
fill="#000000" stroke="none">
<path d="M898 4307 c-70 -32 -98 -85 -98 -185 l0 -68 -75 -43 c-190 -108 -347
-273 -444 -467 -43 -86 -86 -206 -95 -264 -3 -19 -10 -57 -15 -85 -7 -31 -9
-369 -8 -900 l2 -850 24 -70 c34 -101 58 -151 114 -233 97 -142 238 -247 409
-303 80 -27 110 -31 215 -34 191 -5 331 37 489 146 25 17 185 171 357 342
l313 312 74 0 c115 0 174 14 266 65 31 17 73 44 93 60 19 17 39 30 42 30 4 0
27 -16 51 -36 50 -43 163 -97 228 -111 25 -5 79 -9 120 -9 l74 1 312 -311
c310 -309 389 -376 500 -425 183 -82 410 -88 601 -18 217 80 402 273 473 493
39 120 39 134 36 1016 -2 846 -2 856 -24 934 -46 165 -82 246 -171 381 -84
129 -269 291 -413 364 -25 13 -26 18 -30 96 -3 90 -16 118 -72 159 -26 20 -42
21 -379 24 -194 2 -366 0 -384 -3 -42 -8 -90 -49 -108 -92 -8 -20 -15 -66 -15
-103 l0 -68 -42 -22 c-24 -12 -73 -42 -109 -66 l-67 -44 -583 0 -583 0 -57 40
c-31 22 -79 51 -107 65 l-49 25 -5 82 c-5 93 -20 125 -76 163 l-35 24 -361 0
c-258 0 -369 -4 -388 -12z"/>
</g>
</svg>
